<?xml version="1.0" encoding="UTF-8" standalone="no"?>
<!-- Created with Inkscape (http://www.inkscape.org/) -->

<svg
   xmlns:dc="http://purl.org/dc/elements/1.1/"
   xmlns:cc="http://creativecommons.org/ns#"
   xmlns:rdf="http://www.w3.org/1999/02/22-rdf-syntax-ns#"
   xmlns:svg="http://www.w3.org/2000/svg"
   xmlns="http://www.w3.org/2000/svg"
   xmlns:sodipodi="http://sodipodi.sourceforge.net/DTD/sodipodi-0.dtd"
   xmlns:inkscape="http://www.inkscape.org/namespaces/inkscape"
   width="530"
   height="150"
   viewBox="0 0 530.00001 150"
   id="svg4317"
   version="1.1"
   inkscape:version="0.91 r13725"
   sodipodi:docname="logo-transparent-dark.svg">
  <defs
     id="defs4319" />
  <sodipodi:namedview
     id="base"
     pagecolor="#ffffff"
     bordercolor="#666666"
     borderopacity="1.0"
     inkscape:pageopacity="0.0"
     inkscape:pageshadow="2"
     inkscape:zoom="1.979899"
     inkscape:cx="151.29298"
     inkscape:cy="33.773507"
     inkscape:document-units="px"
     inkscape:current-layer="layer1"
     showgrid="false"
     inkscape:window-width="1920"
     inkscape:window-height="1016"
     inkscape:window-x="0"
     inkscape:window-y="27"
     inkscape:window-maximized="1"
     units="px"
     inkscape:snap-bbox="true"
     inkscape:bbox-nodes="true">
    <inkscape:grid
       type="xygrid"
       id="grid4928" />
  </sodipodi:namedview>
  <metadata
     id="metadata4322">
    <rdf:RDF>
      <cc:Work
         rdf:about="">
        <dc:format>image/svg+xml</dc:format>
        <dc:type
           rdf:resource="http://purl.org/dc/dcmitype/StillImage" />
        <dc:title />
      </cc:Work>
    </rdf:RDF>
  </metadata>
  <g
     inkscape:label="Layer 1"
     inkscape:groupmode="layer"
     id="layer1"
     transform="translate(0,-902.36218)">
    <rect
       style="fill:#1a1a1a;fill-opacity:1;stroke:none;stroke-width:10;stroke-miterlimit:4;stroke-dasharray:none"
       id="rect4145"
       width="109.04604"
       height="109.04604"
       x="-134.0968"
       y="924.85236"
       ry="27.353046"
       transform="scale(-1,1)" />
    <path
       style="opacity:1;fill:#cccccc;fill-opacity:1;stroke:#666666;stroke-width:0;stroke-miterlimit:4;stroke-dasharray:none"
       d="m 68.18172,953.46028 a 8.6553697,8.6553697 0 0 0 8.65537,8.65538 8.6553697,8.6553697 0 0 0 8.655371,-8.65538 8.6553697,8.6553697 0 0 0 -8.655371,-8.65537 8.6553697,8.6553697 0 0 0 -8.65537,8.65537 z"
       id="path4195"
       inkscape:connector-curvature="0" />
    <path
       style="opacity:1;fill:#cccccc;fill-opacity:1;stroke:#666666;stroke-width:0;stroke-miterlimit:4;stroke-dasharray:none"
       d="m 45.021424,969.74398 a 8.6553697,8.6553697 0 0 0 8.655369,8.65536 8.6553697,8.6553697 0 0 0 8.65537,-8.65536 8.6553697,8.6553697 0 0 0 -8.65537,-8.65538 8.6553697,8.6553697 0 0 0 -8.655369,8.65538 z"
       id="path4195-4"
       inkscape:connector-curvature="0" />
    <path
       style="color:#000000;font-style:normal;font-variant:normal;font-weight:normal;font-stretch:normal;font-size:medium;line-height:normal;font-family:sans-serif;text-indent:0;text-align:start;text-decoration:none;text-decoration-line:none;text-decoration-style:solid;text-decoration-color:#000000;letter-spacing:normal;word-spacing:normal;text-transform:none;direction:ltr;block-progression:tb;writing-mode:lr-tb;baseline-shift:baseline;text-anchor:start;white-space:normal;clip-rule:nonzero;display:inline;overflow:visible;visibility:visible;opacity:1;isolation:auto;mix-blend-mode:normal;color-interpolation:sRGB;color-interpolation-filters:linearRGB;solid-color:#000000;solid-opacity:1;fill:#cccccc;fill-opacity:1;fill-rule:evenodd;stroke:#666666;stroke-width:0.00232992;stroke-linecap:butt;stroke-linejoin:miter;stroke-miterlimit:4;stroke-dasharray:none;stroke-dashoffset:0;stroke-opacity:1;color-rendering:auto;image-rendering:auto;shape-rendering:auto;text-rendering:auto;enable-background:accumulate"
       d="m 89.283124,991.23373 c 2.941371,41.67707 -56.714287,18.33027 -27.553472,-5.59138 -5.41554,16.95975 25.989512,18.08835 17.519333,-7.3347 24.501325,13.32018 28.432325,-15.09172 9.635152,-12.79807 27.209693,-25.13719 45.394303,33.6851 0.398987,25.72415 z"
       id="path4212-0"
       inkscape:connector-curvature="0"
       sodipodi:nodetypes="ccccc" />
    <g
       style="font-style:normal;font-variant:normal;font-weight:normal;font-stretch:normal;font-size:68.48390198px;line-height:129.99999523%;font-family:Cantarell;-inkscape-font-specification:'Cantarell, Normal';text-align:start;letter-spacing:0px;word-spacing:0px;writing-mode:lr-tb;text-anchor:start;fill:#4d4d4d;fill-opacity:1;stroke:#cccccc;stroke-width:0;stroke-linecap:butt;stroke-linejoin:miter;stroke-miterlimit:4;stroke-dasharray:none;stroke-opacity:1"
       id="text4930">
      <path
         d="m 174.15387,995.99722 0.34242,0 c 3.15026,0 6.09507,-0.61636 9.24533,-1.91755 l -1.30119,-3.76662 c -2.12301,0.75333 -4.45146,1.16423 -6.30052,1.16423 -0.54787,0 -1.02726,0 -1.50665,-0.0685 -7.32778,-0.8903 -10.75197,-4.93085 -10.75197,-13.01195 0,-7.73868 3.8351,-12.05316 11.71075,-12.05316 1.98603,0 4.38296,0.4109 6.91687,1.30119 l 1.36968,-3.97206 c -3.01329,-1.3012 -5.88962,-2.19149 -8.56049,-2.19149 -5.75265,0 -9.99865,1.78058 -12.80649,5.13629 -2.67087,3.21875 -4.31449,7.46475 -4.31449,12.73801 0,10.47804 5.75265,16.64159 15.95675,16.64159 z"
         style="stroke-width:0"
         id="path6062" />
      <path
         d="m 205.25091,966.13824 c 6.71143,0 10.34107,5.68416 10.34107,12.738 0,7.05384 -3.56116,12.60104 -10.34107,12.60104 -6.71142,0 -10.06713,-5.61568 -10.06713,-12.60104 0,-6.98536 3.4242,-12.738 10.06713,-12.738 z m 0,29.85898 c 10.13562,0 16.16221,-6.84839 16.16221,-17.12098 0,-10.34107 -5.9581,-17.39491 -16.16221,-17.39491 -10.13561,0 -15.88826,7.05384 -15.88826,17.39491 0,10.27259 5.75265,17.12098 15.88826,17.12098 z"
         style="stroke-width:0"
         id="path6064" />
      <path
         d="m 244.52322,991.27183 c -7.25929,0 -10.68348,-4.99933 -10.68348,-12.39559 0,-7.32778 3.42419,-12.87497 10.75197,-12.87497 2.60239,0 4.99932,0.4109 7.39626,1.43816 l 0,21.77788 c -2.32845,1.30119 -4.10903,2.05452 -7.46475,2.05452 z m -1.23271,4.72539 c 3.28723,0 6.43749,-1.09575 9.3823,-3.01329 l 0.95877,2.32845 4.04055,0 0,-45.9527 -5.68416,0 0,13.69678 c -2.60239,-1.09574 -5.27326,-1.57513 -7.94413,-1.57513 -4.51994,0 -8.28656,1.43816 -11.29985,4.38297 -3.15026,3.15026 -4.72539,7.32778 -4.72539,13.01194 0,9.86168 5.1363,17.12098 15.27191,17.12098 z"
         style="stroke-width:0"
         id="path6066" />
      <path
         d="m 267.2449,962.30314 0,33.00924 5.68416,0 0,-33.00924 -5.68416,0 z m 0,-12.94346 0,5.75265 5.68416,0 0,-5.75265 -5.68416,0 z"
         style="stroke-width:0"
         id="path6068" />
      <path
         d="m 304.40812,974.28782 0,21.02456 5.68416,0 0,-22.39424 c 0,-6.98536 -3.69813,-11.43681 -10.82046,-11.43681 -3.49268,0 -7.53323,1.23271 -11.71074,3.4242 l -1.09575,-2.60239 -3.97206,0 0,33.00924 5.68416,0 0,-26.57176 c 3.35571,-1.57513 6.50597,-2.39693 9.10836,-2.39693 5.34174,0 7.12233,2.46542 7.12233,7.94413 z"
         style="stroke-width:0"
         id="path6070" />
      <path
         d="m 341.67085,993.73725 0,0.95877 c 0,2.123 0,3.76662 -0.13697,4.72539 -0.68484,5.95809 -4.51993,9.58779 -11.43681,9.58779 -2.39693,0 -4.99932,-0.6849 -7.87565,-1.7121 l -1.50664,3.972 c 2.73935,1.2327 6.84839,2.1915 10.06713,2.1915 5.06781,0 9.31381,-1.5751 11.98468,-4.109 3.28723,-3.1503 4.58843,-6.3005 4.58843,-12.46409 l 0,-34.58437 -4.04055,0 -0.68484,1.91755 -1.57513,-0.68484 c -2.73936,-1.23271 -5.34175,-1.84907 -7.80717,-1.84907 -1.91755,0 -3.76661,0.34242 -5.54719,1.09574 -6.02659,2.53391 -9.93017,8.14959 -9.93017,16.57311 0,4.31448 1.09574,7.6702 3.01329,10.47804 2.53391,3.69813 6.43749,6.16355 12.12165,6.16355 3.28723,0 5.9581,-0.75333 8.76594,-2.25997 z m -18.21672,-15.13494 c 0,-7.19081 3.4242,-12.39559 10.54652,-12.39559 2.25997,0 4.79388,0.54787 7.6702,1.7121 l 0,21.70939 c -2.123,1.16423 -4.51994,1.84907 -7.39626,1.84907 -7.19081,0 -10.82046,-5.75265 -10.82046,-12.87497 z"
         style="stroke-width:0"
         id="path6072" />
      <path
         d="m 368.6321,995.99722 c 2.32845,0 4.72538,-0.47939 7.25929,-1.3012 l 0,-4.17752 c -1.78058,0.47939 -3.62965,0.75333 -5.61568,0.75333 -4.246,0 -5.20478,-2.25997 -5.20478,-6.64294 l 0,-17.66885 10.82046,0 0,-4.6569 -10.82046,0 0,-8.56049 -5.68416,0.27394 0,8.28655 -5.5472,0 0,4.6569 5.5472,0 0,18.07975 c 0,6.98536 2.39694,10.95743 9.24533,10.95743 z"
         style="stroke-width:0"
         id="path6074" />
      <path
         d="m 381.57235,979.35563 c 0,10.68349 5.75265,16.64159 16.50462,16.64159 3.69813,0 7.2593,-0.68484 10.61501,-1.84907 l 0,-4.45145 c -3.21875,1.02726 -6.23204,1.64361 -9.10836,1.64361 -4.17752,0 -7.46475,-1.02726 -9.3823,-3.08177 -1.91754,-2.05452 -3.15025,-4.72539 -3.21874,-7.87565 l 22.66817,0 0.34242,-0.54787 0,-3.0133 c 0,-9.51926 -4.86235,-15.34039 -13.55981,-15.34039 -9.58775,0 -14.86101,8.14958 -14.86101,17.8743 z m 22.80514,-3.28723 -17.25794,0 c 0.61635,-5.27326 3.42419,-9.93016 9.7932,-9.93016 5.13629,0 7.46474,4.51993 7.46474,9.93016 z"
         style="stroke-width:0"
         id="path6076" />
      <path
         d="m 429.01245,966.2752 c 4.10903,0 6.84839,1.57513 7.80716,4.17752 0.41091,1.09574 0.61636,2.73936 0.61636,5.13629 l 0,0.27394 c -5.06781,0.13697 -9.17684,0.61635 -12.46407,1.43816 -4.31449,1.16423 -8.0811,4.31449 -8.0811,9.7932 0,5.34174 4.86236,8.90291 10.615,8.90291 3.69813,0 7.05385,-1.23271 10.13562,-3.76662 l 1.23271,3.08178 4.246,0 0,-21.43546 c 0,-5.41023 -1.16422,-7.87565 -4.6569,-10.2041 -1.84907,-1.23272 -4.72539,-2.19149 -8.56049,-2.19149 -3.8351,0 -7.53323,1.02726 -11.09439,2.39694 l 0,4.45145 c 2.80784,-0.95877 7.39626,-2.05452 10.2041,-2.05452 z m -0.68484,25.40753 c -0.82181,0 -1.64361,-0.13697 -2.25997,-0.4109 -1.91755,-0.89029 -3.62965,-2.53391 -3.62965,-4.86236 0,-0.82181 0.27394,-1.57513 0.75333,-2.39694 1.09574,-1.78058 2.94481,-2.87632 5.47871,-3.42419 1.36968,-0.27394 4.246,-0.47939 8.76594,-0.61636 l 0,7.87565 c -2.39694,2.32846 -5.13629,3.8351 -9.10836,3.8351 z"
         style="stroke-width:0"
         id="path6078" />
      <path
         d="m 492.01763,974.28782 0,21.02456 5.68417,0 0,-22.39424 c 0,-6.64294 -3.49268,-11.43681 -10.40956,-11.43681 -4.45145,0 -7.87565,2.05452 -11.23136,4.38297 -1.7121,-2.46542 -4.6569,-4.38297 -8.56049,-4.38297 -4.10903,0 -6.64293,1.23271 -10.06713,3.4242 l -1.09574,-2.60239 -3.97207,0 0,33.00924 5.68417,0 0,-26.64024 c 2.9448,-1.64361 5.54719,-2.5339 7.67019,-2.5339 4.65691,0 6.50597,3.08177 6.50597,8.14958 l 0,21.02456 5.61568,0 0,-22.39424 c 0,-1.57513 -0.0685,-2.87632 -0.34242,-3.8351 3.21875,-1.91755 5.68417,-2.9448 8.01262,-2.9448 4.58842,0 6.50597,3.08177 6.50597,8.14958 z"
         style="stroke-width:0"
         id="path6080" />
    </g>
  </g>
</svg>
